HIERARCHY
ROOT Hips
{
  OFFSET 13.9192 87.0099 7.45665
  CHANNELS 6 Xposition Yposition Zposition Zrotation Xrotation Yrotation
  JOINT RightUpLeg
  {
    OFFSET -9.25892 -1.51126 0.0103963
    CHANNELS 3 Zrotation Xrotation Yrotation
    JOINT RightLeg
    {
      OFFSET -0.0493687 -41.9019 0.103893
      CHANNELS 3 Zrotation Xrotation Yrotation
      JOINT RightFoot
      {
        OFFSET -1.32222 -41.6903 -0.651221
        CHANNELS 3 Zrotation Xrotation Yrotation
        End Site
        {
          OFFSET 0 -7.69 17.5
        }
      }
    }
  }
  JOINT LeftUpLeg
  {
    OFFSET 9.27814 -1.57439 0.0532125
    CHANNELS 3 Zrotation Xrotation Yrotation
    JOINT LeftLeg
    {
      OFFSET 0.0812204 -41.881 0.0464493
      CHANNELS 3 Zrotation Xrotation Yrotation
      JOINT LeftFoot
      {
        OFFSET -0.0110097 -42.3775 0.673629
        CHANNELS 3 Zrotation Xrotation Yrotation
        End Site
        {
          OFFSET 0 -7.69 17.5
        }
      }
    }
  }
  JOINT Spine
  {
    OFFSET 0.0235844 14.3019 0.0112981
    CHANNELS 3 Zrotation Xrotation Yrotation
    JOINT Spine1
    {
      OFFSET 0.0175769 9.71285 0.00895779
      CHANNELS 3 Zrotation Xrotation Yrotation
      JOINT Spine2
      {
        OFFSET 0.0285364 10.1117 0.00103808
        CHANNELS 3 Zrotation Xrotation Yrotation
        JOINT Spine3
        {
          OFFSET 0.0259409 9.72657 0.0104237
          CHANNELS 3 Zrotation Xrotation Yrotation
          JOINT Neck
          {
            OFFSET -0.0111787 10.3773 0.0255796
            CHANNELS 3 Zrotation Xrotation Yrotation
            JOINT Head
            {
              OFFSET -0.00267722 9.48908 0.0510269
              CHANNELS 3 Zrotation Xrotation Yrotation
              End Site
              {
                OFFSET 0 15.95 0
              }
            }
          }
          JOINT RightShoulder
          {
            OFFSET -3.1909 6.94591 0.0199124
            CHANNELS 3 Zrotation Xrotation Yrotation
            JOINT RightArm
            {
              OFFSET -12.7524 0.0197095 0.0110528
              CHANNELS 3 Zrotation Xrotation Yrotation
              JOINT RightForeArm
              {
                OFFSET -26.4891 -0.0606575 0.0254635
                CHANNELS 3 Zrotation Xrotation Yrotation
                JOINT RightHand
                {
                  OFFSET -26.017 -0.0465962 -0.00264686
                  CHANNELS 3 Zrotation Xrotation Yrotation
                  JOINT RightHandThumb1
                  {
                    OFFSET -2.48905 0.190105 3.12053
                    CHANNELS 3 Zrotation Xrotation Yrotation
                    JOINT RightHandThumb2
                    {
                      OFFSET -3.68274 0 0
                      CHANNELS 3 Zrotation Xrotation Yrotation
                      JOINT RightHandThumb3
                      {
                        OFFSET -2.55832 0 0
                        CHANNELS 3 Zrotation Xrotation Yrotation
                        End Site
                        {
                          OFFSET -2.194 0 0
                        }
                      }
                    }
                  }
                  JOINT RightInHandIndex
                  {
                    OFFSET -3.22368 0.508421 1.97842
                    CHANNELS 3 Zrotation Xrotation Yrotation
                    JOINT RightHandIndex1
                    {
                      OFFSET -5.21684 -0.091368 0.999158
                      CHANNELS 3 Zrotation Xrotation Yrotation
                      JOINT RightHandIndex2
                      {
                        OFFSET -3.61937 0 0
                        CHANNELS 3 Zrotation Xrotation Yrotation
                        JOINT RightHandIndex3
                        {
                          OFFSET -2.0521 0 0
                          CHANNELS 3 Zrotation Xrotation Yrotation
                          End Site
                          {
                            OFFSET -1.805 0 0
                          }
                        }
                      }
                    }
                  }
                  JOINT RightInHandMiddle
                  {
                    OFFSET -3.38211 0.517263 0.756737
                    CHANNELS 3 Zrotation Xrotation Yrotation
                    JOINT RightHandMiddle1
                    {
                      OFFSET -5.17411 -0.084 0.313895
                      CHANNELS 3 Zrotation Xrotation Yrotation
                      JOINT RightHandMiddle2
                      {
                        OFFSET -3.94947 0 0
                        CHANNELS 3 Zrotation Xrotation Yrotation
                        JOINT RightHandMiddle3
                        {
                          OFFSET -2.47579 0 0
                          CHANNELS 3 Zrotation Xrotation Yrotation
                          End Site
                          {
                            OFFSET -1.975 0 0
                          }
                        }
                      }
                    }
                  }
                  JOINT RightInHandRing
                  {
                    OFFSET -3.36516 0.537895 -0.128947
                    CHANNELS 3 Zrotation Xrotation Yrotation
                    JOINT RightHandRing1
                    {
                      OFFSET -4.63474 -0.022105 -0.478947
                      CHANNELS 3 Zrotation Xrotation Yrotation
                      JOINT RightHandRing2
                      {
                        OFFSET -3.44238 0 0
                        CHANNELS 3 Zrotation Xrotation Yrotation
                        JOINT RightHandRing3
                        {
                          OFFSET -2.3881 0 0
                          CHANNELS 3 Zrotation Xrotation Yrotation
                          End Site
                          {
                            OFFSET -1.857 0 0
                          }
                        }
                      }
                    }
                  }
                  JOINT RightInHandPinky
                  {
                    OFFSET -3.16105 0.469368 -1.20179
                    CHANNELS 3 Zrotation Xrotation Yrotation
                    JOINT RightHandPinky1
                    {
                      OFFSET -4.14105 -0.022105 -1.09053
                      CHANNELS 3 Zrotation Xrotation Yrotation
                      JOINT RightHandPinky2
                      {
                        OFFSET -2.75653 0 0
                        CHANNELS 3 Zrotation Xrotation Yrotation
                        JOINT RightHandPinky3
                        {
                          OFFSET -1.74189 0 0
                          CHANNELS 3 Zrotation Xrotation Yrotation
                          End Site
                          {
                            OFFSET -1.645 0 0
                          }
                        }
                      }
                    }
                  }
                }
              }
            }
          }
          JOINT LeftShoulder
          {
            OFFSET 3.2161 6.92611 -0.00186679
            CHANNELS 3 Zrotation Xrotation Yrotation
            JOINT LeftArm
            {
              OFFSET 12.7484 -0.0283569 -0.0302446
              CHANNELS 3 Zrotation Xrotation Yrotation
              JOINT LeftForeArm
              {
                OFFSET 26.4766 -0.0880322 -0.0033192
                CHANNELS 3 Zrotation Xrotation Yrotation
                JOINT LeftHand
                {
                  OFFSET 26.0079 -0.0456134 -0.0735001
                  CHANNELS 3 Zrotation Xrotation Yrotation
                  JOINT LeftHandThumb1
                  {
                    OFFSET 2.48905 0.190105 3.12053
                    CHANNELS 3 Zrotation Xrotation Yrotation
                    JOINT LeftHandThumb2
                    {
                      OFFSET 3.68274 0 0
                      CHANNELS 3 Zrotation Xrotation Yrotation
                      JOINT LeftHandThumb3
                      {
                        OFFSET 2.55832 0 0
                        CHANNELS 3 Zrotation Xrotation Yrotation
                        End Site
                        {
                          OFFSET 2.194 0 0
                        }
                      }
                    }
                  }
                  JOINT LeftInHandIndex
                  {
                    OFFSET 3.22368 0.508421 1.97842
                    CHANNELS 3 Zrotation Xrotation Yrotation
                    JOINT LeftHandIndex1
                    {
                      OFFSET 5.21684 -0.091368 0.999158
                      CHANNELS 3 Zrotation Xrotation Yrotation
                      JOINT LeftHandIndex2
                      {
                        OFFSET 3.61937 0 0
                        CHANNELS 3 Zrotation Xrotation Yrotation
                        JOINT LeftHandIndex3
                        {
                          OFFSET 2.0521 0 0
                          CHANNELS 3 Zrotation Xrotation Yrotation
                          End Site
                          {
                            OFFSET 1.805 0 0
                          }
                        }
                      }
                    }
                  }
                  JOINT LeftInHandMiddle
                  {
                    OFFSET 3.38211 0.517263 0.756737
                    CHANNELS 3 Zrotation Xrotation Yrotation
                    JOINT LeftHandMiddle1
                    {
                      OFFSET 5.17411 -0.084 0.313895
                      CHANNELS 3 Zrotation Xrotation Yrotation
                      JOINT LeftHandMiddle2
                      {
                        OFFSET 3.94947 0 0
                        CHANNELS 3 Zrotation Xrotation Yrotation
                        JOINT LeftHandMiddle3
                        {
                          OFFSET 2.47579 0 0
                          CHANNELS 3 Zrotation Xrotation Yrotation
                          End Site
                          {
                            OFFSET 1.975 0 0
                          }
                        }
                      }
                    }
                  }
                  JOINT LeftInHandRing
                  {
                    OFFSET 3.36516 0.537895 -0.128947
                    CHANNELS 3 Zrotation Xrotation Yrotation
                    JOINT LeftHandRing1
                    {
                      OFFSET 4.63474 -0.022105 -0.478947
                      CHANNELS 3 Zrotation Xrotation Yrotation
                      JOINT LeftHandRing2
                      {
                        OFFSET 3.44238 0 0
                        CHANNELS 3 Zrotation Xrotation Yrotation
                        JOINT LeftHandRing3
                        {
                          OFFSET 2.3881 0 0
                          CHANNELS 3 Zrotation Xrotation Yrotation
                          End Site
                          {
                            OFFSET 1.857 0 0
                          }
                        }
                      }
                    }
                  }
                  JOINT LeftInHandPinky
                  {
                    OFFSET 3.16105 0.469368 -1.20179
                    CHANNELS 3 Zrotation Xrotation Yrotation
                    JOINT LeftHandPinky1
                    {
                      OFFSET 4.14105 -0.022105 -1.09053
                      CHANNELS 3 Zrotation Xrotation Yrotation
                      JOINT LeftHandPinky2
                      {
                        OFFSET 2.75653 0 0
                        CHANNELS 3 Zrotation Xrotation Yrotation
                        JOINT LeftHandPinky3
                        {
                          OFFSET 1.74189 0 0
                          CHANNELS 3 Zrotation Xrotation Yrotation
                          End Site
                          {
                            OFFSET 1.645 0 0
                          }
                        }
                      }
                    }
                  }
                }
              }
            }
          }
        }
      }
    }
  }
}
MOTION
Frames: 2
Frame Time: 0.00833333
7.699655717361018787e+02 8.625991767258955178e+01 8.603329949430078116e+00 3.018954357001499389e+01 -1.254089533608442864e+01 -1.191277985070042860e+02 6.823802349534694223e+00 -6.806505187941699830e+01 2.478814467313557302e+01 9.113438678573531959e+00 3.881944549435923619e+01 -2.780880005481944650e+01 5.273956436593340236e+00 -4.557239924414074217e+00 2.921855474047195145e+01 2.694976834624526774e+01 -6.388077443645906328e+01 1.913068687689446890e+01 7.042664718242028776e+00 3.514679665366175954e+01 4.390666216699782964e+00 -1.280711076414010918e+01 -1.316030186234425081e-01 -3.986555211359902096e+00 2.427651652028973039e+00 1.484147148070852928e+01 1.178990052512933318e+00 6.171034478779127141e-01 3.789265781935529098e+00 4.705280915495717031e-01 1.008521835669209388e+00 6.172933703402931904e+00 8.143445247927584285e-01 -6.046341350736820219e-01 4.413862792933788137e-01 -4.992949291695045755e-01 -4.297484273455956516e-01 5.235991032721466487e-01 -1.851177424781856873e+00 -1.076883248217001743e+01 7.078248827396659060e+00 -8.604203907227280013e+00 6.490760854992071671e+00 1.033050772203492507e+00 6.281254734985364685e+00 6.775563863381887586e+01 2.622609140885184686e+01 6.818980686230069921e+01 -5.795686822793414628e+00 -3.334545972462659336e+01 -1.037284390016752411e+01 1.017091811602360885e+01 -3.198433128620036925e+01 6.363476609738091483e+00 2.818400000000000105e+01 1.072940000000000005e+01 1.915919999999999845e+01 -2.721230102549823494e-15 -3.164909784984810116e-15 -1.000000000000000000e+01 -4.587454591617660248e-15 -3.706961631331453135e-15 -1.000000000000000000e+01 1.755233949063123550e-15 -3.079626791358212287e-15 -1.188115047245730183e-15 1.998179999999999978e+01 8.718970000000000331e-01 2.396399999999999864e+00 2.400000000000000000e+01 -1.165844535709867726e-15 2.581735006891612061e-15 2.000000000000000000e+01 -2.855787479246270489e-15 -4.634651839384330497e-15 1.755233949063123550e-15 -3.079626791358212287e-15 -1.188115047245730183e-15 2.000000000000000000e+01 1.886950444691432662e-15 4.128252511068653618e-15 2.400000000000000000e+01 4.847659558396392161e-16 1.245803424980965599e-16 2.000000000000000000e+01 -1.955781156101301287e-16 8.754142118667069131e-15 1.755233949063123550e-15 -3.079626791358212287e-15 -1.188115047245730183e-15 1.997479999999999833e+01 -1.025649999999999951e+00 -2.819380000000000219e+00 2.400000000000000000e+01 -8.443579301763036636e-16 4.277227586463881221e-16 2.000000000000000000e+01 -1.269005263720644070e-15 3.472870249643228900e-17 1.755233949063123550e-15 -3.079626791358212287e-15 -1.188115047245730183e-15 1.978150000000000119e+01 -3.009479999999999933e+00 -8.305149999999999366e+00 2.400000000000000000e+01 2.037362098755981788e-15 1.389336669197690060e-14 2.000000000000000000e+01 -1.650320245527778434e-15 3.090963668392491758e-15 -1.875216395355402810e+01 -9.223938234854418994e+00 -1.452654194778402186e+01 -3.363343143465088048e+01 5.126116234386211090e+01 -5.629272969868159038e+01 -3.801423510120544336e+01 -7.712081710021702463e+01 -4.359031699011082139e+01 -6.980563187099009781e+01 -6.742372212444546165e+01 -8.100779094536862601e+01 -2.818400000000000105e+01 1.072940000000000005e+01 -1.915919999999999845e+01 2.219010215657400096e-14 1.006175416847179488e-15 1.000000000000000000e+01 1.836402891310510063e-15 3.224647383108784595e-16 1.000000000000000000e+01 1.938789239425504782e-15 -1.207598624380325690e-15 1.578567068350951424e-15 -1.998179999999999978e+01 8.718970000000000331e-01 -2.396399999999999864e+00 -2.400000000000000000e+01 1.441411979967539483e-15 -3.198707370942441814e-15 -2.000000000000000000e+01 -1.311494859231886384e-15 -9.036656323577308555e-16 1.938789239425504782e-15 -1.207598624380325690e-15 1.578567068350951424e-15 -2.000000000000000000e+01 -9.462054852763877431e-16 -1.153888653153766569e-14 -2.400000000000000000e+01 5.426418798672340537e-16 -3.457107629847329299e-15 -2.000000000000000000e+01 1.296604863016978533e-15 1.542525368347273577e-15 1.938789239425504782e-15 -1.207598624380325690e-15 1.578567068350951424e-15 -1.997479999999999833e+01 -1.025649999999999951e+00 2.819380000000000219e+00 -2.400000000000000000e+01 9.985292806957423914e-17 -5.866697127651976204e-15 -2.000000000000000000e+01 -1.931473293104133747e-17 -3.260422361708722621e-15 1.938789239425504782e-15 -1.207598624380325690e-15 1.578567068350951424e-15 -1.978150000000000119e+01 -3.009479999999999933e+00 8.305149999999999366e+00 -2.400000000000000000e+01 8.131276288084180041e-15 1.732015591547310527e-17 -2.000000000000000000e+01 2.783474083846807137e-15 -2.020591419807817414e-15
7.699666143582379618e+02 8.625917065647252002e+01 8.583611456647183502e+00 3.018868214742890288e+01 -1.254059686422813158e+01 -1.191735731518465542e+02 6.872099326241943196e+00 -6.801052223502949801e+01 2.482982060781069578e+01 9.104141960174803927e+00 3.881381714311508802e+01 -2.780005607183799654e+01 5.272123470671031598e+00 -4.557704364807734443e+00 2.922833189090394512e+01 2.698019114556252163e+01 -6.381292654804438058e+01 1.914847185447171540e+01 7.011205580673076199e+00 3.514866672421872806e+01 4.409659154460612740e+00 -1.281539866113801907e+01 -1.450805891852217089e-01 -3.982541977557111590e+00 2.399965925992214366e+00 1.481635381658484718e+01 1.106309567763664292e+00 6.091925397528829000e-01 3.778235640843082610e+00 4.498692758837091743e-01 9.957170684416292161e-01 6.158379540020570531e+00 7.825617463324459067e-01 -6.038094325410267027e-01 4.397288868618152158e-01 -4.923414714326687092e-01 -4.441343091815146416e-01 5.157490256745220769e-01 -1.741801532313388190e+00 -1.074819288083257263e+01 7.088776303889926744e+00 -8.537048307936267122e+00 6.478268876185885539e+00 1.013905804571255231e+00 6.228500860540870931e+00 6.753516950163755439e+01 2.610509666981537436e+01 6.797319312490870402e+01 -5.760736210689735515e+00 -3.332281327908749091e+01 -1.007466982953108570e+01 1.021674967218942065e+01 -3.181498757245708831e+01 6.355782321121957068e+00 2.818400000000000105e+01 1.072940000000000005e+01 1.915919999999999845e+01 -2.616602001669635538e-15 -3.064342930450029643e-15 -1.000000000000000000e+01 -4.570219025297629841e-15 -3.666395843401436225e-15 -1.000000000000000000e+01 1.804797325697279429e-15 -3.151162874159299876e-15 -1.156679500992676318e-15 1.998179999999999978e+01 8.718970000000000331e-01 2.396399999999999864e+00 2.400000000000000000e+01 -1.166775537166863659e-15 2.502174166885623126e-15 2.000000000000000000e+01 -2.879995591989342986e-15 -4.764180858296896522e-15 1.804797325697279429e-15 -3.151162874159299876e-15 -1.156679500992676318e-15 2.000000000000000000e+01 1.808100797149798404e-15 4.078184981562964024e-15 2.400000000000000000e+01 3.781564726683753193e-16 1.367360201016114535e-16 2.000000000000000000e+01 -2.221428736493835248e-16 8.640514822134575942e-15 1.804797325697279429e-15 -3.151162874159299876e-15 -1.156679500992676318e-15 1.997479999999999833e+01 -1.025649999999999951e+00 -2.819380000000000219e+00 2.400000000000000000e+01 -8.434928866182510175e-16 3.778966268080343898e-16 2.000000000000000000e+01 -1.296134439443926830e-15 -7.839542826220636690e-17 1.804797325697279429e-15 -3.151162874159299876e-15 -1.156679500992676318e-15 1.978150000000000119e+01 -3.009479999999999933e+00 -8.305149999999999366e+00 2.400000000000000000e+01 2.071729254484632415e-15 1.373881368822370358e-14 2.000000000000000000e+01 -1.666532151131068659e-15 2.892881190594851182e-15 -1.866626244096615395e+01 -9.260615243816751274e+00 -1.449672918965502433e+01 -3.357783023151724677e+01 5.119486658165174475e+01 -5.646208873569924691e+01 -3.778937231129180674e+01 -7.703845787808285195e+01 -4.362177981321732290e+01 -6.998571052444039253e+01 -6.707786101981781712e+01 -8.103754723386371950e+01 -2.818400000000000105e+01 1.072940000000000005e+01 -1.915919999999999845e+01 2.257748237830008577e-14 1.013557899222086344e-15 1.000000000000000000e+01 1.573260023689000586e-15 2.775967084318011362e-16 1.000000000000000000e+01 1.956181510493204014e-15 -1.190192445940972489e-15 1.479395899784795873e-15 -1.998179999999999978e+01 8.718970000000000331e-01 -2.396399999999999864e+00 -2.400000000000000000e+01 1.456722429990226101e-15 -2.968520143482007127e-15 -2.000000000000000000e+01 -1.386216469941254037e-15 -9.332506798452990563e-16 1.956181510493204014e-15 -1.190192445940972489e-15 1.479395899784795873e-15 -2.000000000000000000e+01 -9.432732908223457248e-16 -1.143958834114124002e-14 -2.400000000000000000e+01 4.987395973108346734e-16 -3.385019733907818505e-15 -2.000000000000000000e+01 1.284562060972325631e-15 1.545849196564745651e-15 1.956181510493204014e-15 -1.190192445940972489e-15 1.479395899784795873e-15 -1.997479999999999833e+01 -1.025649999999999951e+00 2.819380000000000219e+00 -2.400000000000000000e+01 1.581056432509120760e-16 -5.736334326587597442e-15 -2.000000000000000000e+01 -5.706269226277857313e-19 -3.204319431886230396e-15 1.956181510493204014e-15 -1.190192445940972489e-15 1.479395899784795873e-15 -1.978150000000000119e+01 -3.009479999999999933e+00 8.305149999999999366e+00 -2.400000000000000000e+01 8.097717391629945039e-15 1.594619522857766123e-16 -2.000000000000000000e+01 2.634419262526656847e-15 -2.187192166352283856e-15
